#!OML:ASF E:\Steps\Project 1\Capture day 1\Session 2\Subject.ASF
:FULLY-SPECIFIED
:DEGREES
47
root 16.6611 17.9757 20.6897 -154.931 -1.2628 175.527
lowerback -31.3943 -2.83703 -10.1728
upperback -0.358209 -0.561005 -0.701955
thorax 16.056 -1.25953 4.40544
lowerneck -6.60656 -1.76187 -0.404985
upperneck 4.63046 -2.58352 3.5855
head 2.68551 -1.19134 1.11154
rclavicle 7.60351e-015 2.66371e-014
rhumerus -38.038 -18.081 -76.9905
rradius 33.7109
rwrist -2.7663
rhand -5.73637 -54.885
rfingers 7.12502
rthumb 20.0858 -83.8668
lclavicle 7.60351e-015 2.66371e-014
lhumerus -30.4687 5.32491 80.2173
lradius 25.6089
lwrist -3.22306
lhand -21.6462 -13.154
lfingers 7.12502
lthumb 4.75041 16.7727
rfemur -21.0271 3.4857 18.2492
rtibia 5.84332
rfoot -16.9604 -2.37538
rtoes -26.9775
lfemur -22.93 -8.96859 -24.8525
ltibia 9.09298
lfoot -7.73513 -2.30949
ltoes -31.8014
48
root 16.6698 17.9735 20.6854 -155.001 -0.929348 175.488
lowerback -31.4255 -2.79691 -10.3506
upperback -0.336053 -0.440052 -0.69524
thorax 16.0763 -1.2229 4.55795
lowerneck -6.50442 -1.70938 -0.568154
upperneck 4.49601 -2.50051 3.69841
head 2.62459 -1.15195 1.1807
rclavicle -5.91384e-015 -4.37326e-015
rhumerus -38.1927 -17.8835 -76.939
rradius 33.9141
rwrist -2.62844
rhand -4.9412 -54.3289
rfingers 7.12502
rthumb 20.8499 -83.2286
lclavicle -5.91384e-015 -4.37326e-015
lhumerus -30.5581 5.60862 80.1438
lradius 25.3746
lwrist -3.50618
lhand -21.8604 -13.236
lfingers 7.12502
lthumb 4.54359 16.6953
rfemur -20.9748 3.7524 18.1932
rtibia 5.81703
rfoot -16.9746 -2.33018
rtoes -26.4649
lfemur -22.7867 -8.5874 -24.9737
ltibia 9.01666
lfoot -7.7946 -2.35335
ltoes -32.4395
49
root 16.6756 17.9739 20.6879 -155.161 -1.04374 175.547
lowerback -31.1758 -2.81152 -10.3547
upperback -0.333171 -0.483338 -0.650351
thorax 15.9762 -1.23426 4.59861
lowerneck -6.39124 -1.60971 -0.738811
upperneck 4.30026 -2.35793 3.88462
head 2.54118 -1.08226 1.27721
rclavicle 4.67144e-015 1.94809e-014
rhumerus -38.3296 -17.9792 -76.7328
rradius 33.8297
rwrist -2.25606
rhand -4.26128 -52.619
rfingers 7.12502
rthumb 21.503 -81.4454
lclavicle 4.67144e-015 1.94809e-014
lhumerus -30.652 5.87452 80.078
lradius 25.1189
lwrist -3.87431
lhand -21.9611 -13.2199
lfingers 7.12502
lthumb 4.44632 16.7135
rfemur -20.7278 3.8277 18.311
rtibia 5.69907
rfoot -16.9013 -2.4328
rtoes -26.007
lfemur -22.6305 -8.57803 -24.8764
ltibia 9.03452
lfoot -7.8035 -2.45521
ltoes -32.6702
50
root 16.6765 17.9725 20.6877 -155.219 -1.08184 175.633
lowerback -31.203 -2.78306 -10.2649
upperback -0.238299 -0.456636 -0.61517
thorax 16.1019 -1.21916 4.60311
lowerneck -6.49639 -1.60868 -0.811226
upperneck 4.20691 -2.35328 3.97408
head 2.5325 -1.07865 1.31858
rclavicle 1.48592e-014 -6.36111e-015
rhumerus -38.1918 -17.9953 -76.7554
rradius 33.8634
rwrist -2.40906
rhand -4.63993 -52.9247
rfingers 7.12502
rthumb 21.1393 -81.7923
lclavicle 1.48592e-014 -6.36111e-015
lhumerus -30.5777 6.03946 80.0954
lradius 24.869
lwrist -4.10365
lhand -22.1744 -13.0205
lfingers 7.12502
lthumb 4.24035 16.9171
rfemur -20.6593 3.82328 18.4282
rtibia 5.69582
rfoot -16.8836 -2.42191
rtoes -25.5671
lfemur -22.5475 -8.69364 -24.7391
ltibia 8.95183
lfoot -7.77749 -2.37411
ltoes -32.4934
51
root 16.6719 17.975 20.6988 -155.308 -1.48536 175.696
lowerback -30.7797 -2.81381 -10.0914
upperback -0.39117 -0.630188 -0.581567
thorax 15.7563 -1.26361 4.48405
lowerneck -6.29219 -1.6457 -0.800975
upperneck 4.2174 -2.4066 4.00414
head 2.49992 -1.10673 1.32496
rclavicle 2.10712e-014 1.59028e-015
rhumerus -38.4973 -17.9141 -76.6864
rradius 33.9236
rwrist -2.48616
rhand -4.96097 -53.1273
rfingers 7.12502
rthumb 20.8309 -82.029
lclavicle 2.10712e-014 1.59028e-015
lhumerus -30.9044 6.05409 80.0411
lradius 24.6968
lwrist -4.153
lhand -22.2721 -12.7979
lfingers 7.12502
lthumb 4.14604 17.1415
rfemur -20.5058 3.53404 18.5394
rtibia 5.61715
rfoot -16.8422 -2.53122
rtoes -26.3
lfemur -22.5651 -9.151 -24.5639
ltibia 9.053
lfoot -7.6501 -2.26258
ltoes -31.4891
52
root 16.6807 17.9712 20.6951 -155.229 -1.07451 175.665
lowerback -31.0646 -2.74229 -10.2527
upperback -0.321801 -0.438344 -0.61215
thorax 15.9362 -1.20312 4.60986
lowerneck -6.39378 -1.67726 -0.725578
upperneck 4.23304 -2.45537 3.9806
head 2.52346 -1.12937 1.30164
rclavicle -1.44119e-015 -3.1408e-014
rhumerus -38.3576 -17.9514 -76.7508
rradius 33.8787
rwrist -2.51312
rhand -5.06434 -52.6068
rfingers 7.12502
rthumb 20.7316 -81.5195
lclavicle -1.44119e-015 -3.1408e-014
lhumerus -30.8799 6.16431 79.9625
lradius 24.4939
lwrist -4.2555
lhand -22.2794 -12.7764
lfingers 7.12502
lthumb 4.13897 17.1632
rfemur -20.6863 3.83195 18.4953
rtibia 5.71378
rfoot -16.9108 -2.33771
rtoes -24.703
lfemur -22.5966 -8.51896 -24.7186
ltibia 9.00078
lfoot -7.78101 -2.52683
ltoes -32.1288
53
root 16.6749 17.9733 20.7023 -155.294 -1.4762 175.718
lowerback -30.922 -2.80842 -10.0215
upperback -0.27213 -0.606411 -0.604192
thorax 15.9608 -1.25477 4.42989
lowerneck -6.45094 -1.71059 -0.683232
upperneck 4.33237 -2.50955 3.99422
head 2.56833 -1.15388 1.29641
rclavicle 2.23633e-015 -1.23246e-014
rhumerus -38.21 -18.1518 -76.7172
rradius 33.6897
rwrist -2.38433
rhand -4.94568 -50.2714
rfingers 7.12502
rthumb 20.8456 -79.1715
lclavicle 2.23633e-015 -1.23246e-014
lhumerus -30.8744 6.18477 79.9007
lradius 24.2655
lwrist -4.34386
lhand -22.2718 -13.0557
lfingers 7.12502
lthumb 4.14633 16.8837
rfemur -20.5214 3.5223 18.5608
rtibia 5.57882
rfoot -16.9581 -2.39347
rtoes -25.6017
lfemur -22.632 -9.01384 -24.5504
ltibia 9.14688
lfoot -7.68437 -2.39591
ltoes -31.3178
54
root 16.6882 17.971 20.702 -155.176 -1.13784 175.726
lowerback -31.2151 -2.78062 -10.2124
upperback -0.21078 -0.467753 -0.582526
thorax 16.1441 -1.22143 4.6075
lowerneck -6.55295 -1.75501 -0.608441
upperneck 4.47365 -2.5797 3.95983
head 2.63451 -1.18594 1.26901
rclavicle -8.49804e-015 1.98785e-014
rhumerus -38.1388 -18.2837 -76.6623
rradius 33.5893
rwrist -2.29843
rhand -4.78687 -50.2998
rfingers 7.12502
rthumb 20.9982 -79.1831
lclavicle -8.49804e-015 1.98785e-014
lhumerus -30.824 6.35225 79.8738
lradius 23.9641
lwrist -4.48584
lhand -22.0229 -13.279
lfingers 7.12502
lthumb 4.38664 16.6555
rfemur -20.7804 3.89071 18.5732
rtibia 5.72686
rfoot -17.0248 -2.34439
rtoes -24.2716
lfemur -22.7122 -8.49773 -24.5845
ltibia 9.04753
lfoot -7.72063 -2.54455
ltoes -32.6368
55
root 16.6916 17.9715 20.7047 -155.224 -1.17073 175.781
lowerback -31.1157 -2.77516 -10.1959
upperback -0.206591 -0.475773 -0.565365
thorax 16.1066 -1.22061 4.61721
lowerneck -6.7615 -1.78798 -0.332406
upperneck 4.68578 -2.64414 3.75014
head 2.73687 -1.21466 1.14887
rclavicle 1.05356e-014 2.38542e-015
rhumerus -38.2025 -18.28 -76.6759
rradius 33.5939
rwrist -2.32785
rhand -4.49443 -53.638
rfingers 7.12502
rthumb 21.2791 -82.4899
lclavicle 1.05356e-014 2.38542e-015
lhumerus -30.8862 6.54452 79.7922
lradius 23.6688
lwrist -4.67511
lhand -21.8272 -13.342
lfingers 7.12502
lthumb 4.57564 16.5886
rfemur -20.7333 3.91757 18.6552
rtibia 5.73947
rfoot -17.0903 -2.34082
rtoes -23.9301
lfemur -22.67 -8.55093 -24.4812
ltibia 9.02793
lfoot -7.68556 -2.47582
ltoes -32.5217
56
root 16.6919 17.9704 20.7035 -155.268 -1.12646 175.771
lowerback -31.1734 -2.74299 -10.1145
upperback -0.134791 -0.433859 -0.634268
thorax 16.2128 -1.1982 4.51455
lowerneck -6.86322 -1.71793 -0.262728
upperneck 4.68575 -2.56659 3.83276
head 2.75471 -1.17236 1.16654
rclavicle 5.46658e-016 -4.57205e-014
rhumerus -38.1257 -18.3911 -76.7514
rradius 33.4994
rwrist -2.21969
rhand -4.86574 -53.3966
rfingers 7.12502
rthumb 20.9224 -82.2883
lclavicle 5.46658e-016 -4.57205e-014
lhumerus -30.9101 6.61077 79.6599
lradius 23.4715
lwrist -4.72335
lhand -21.6625 -13.2137
lfingers 7.12502
lthumb 4.73466 16.7134
rfemur -20.6382 4.09227 18.6037
rtibia 5.66531
rfoot -17.1121 -2.44069
rtoes -23.3549
lfemur -22.6117 -8.5229 -24.508
ltibia 9.0366
lfoot -7.67573 -2.49093
ltoes -31.8786
57
root 16.6933 17.9692 20.7055 -155.261 -1.10435 175.755
lowerback -31.22 -2.72618 -10.0966
upperback -0.119337 -0.408161 -0.65667
thorax 16.2484 -1.187 4.49003
lowerneck -6.73789 -1.66107 -0.40877
upperneck 4.62112 -2.48892 4.02562
head 2.71428 -1.13348 1.259
rclavicle -7.45443e-016 1.63003e-014
rhumerus -38.091 -18.629 -76.6726
rradius 33.3098
rwrist -1.89481
rhand -5.21551 -53.44
rfingers 7.12502
rthumb 20.5863 -82.3684
lclavicle -7.45443e-016 1.63003e-014
lhumerus -30.9995 6.64806 79.6043
lradius 23.2997
lwrist -4.75008
lhand -21.4884 -12.8781
lfingers 7.12502
lthumb 4.90279 17.0452
rfemur -20.5949 4.27835 18.5484
rtibia 5.57796
rfoot -17.0707 -2.51149
rtoes -22.7419
lfemur -22.6279 -8.42932 -24.5484
ltibia 9.06384
lfoot -7.64543 -2.56399
ltoes -31.4481
58
root 16.6938 17.9685 20.7071 -155.303 -1.07632 175.787
lowerback -31.1941 -2.67753 -9.99966
upperback -0.0998983 -0.373501 -0.681208
thorax 16.2562 -1.16298 4.42703
lowerneck -6.76148 -1.69943 -0.388225
upperneck 4.67775 -2.54362 4.01137
head 2.73853 -1.15981 1.24834
rclavicle 2.5345e-015 2.38542e-015
rhumerus -38.0775 -18.746 -76.6742
rradius 33.2097
rwrist -1.77062
rhand -5.6106 -54.4008
rfingers 7.12502
rthumb 20.2066 -83.3698
lclavicle 2.5345e-015 2.38542e-015
lhumerus -31.0337 6.64307 79.5446
lradius 23.0579
lwrist -4.77264
lhand -21.6012 -12.6167
lfingers 7.12502
lthumb 4.79389 17.3091
rfemur -20.4219 3.98931 18.6127
rtibia 5.28783
rfoot -16.8263 -2.09214
rtoes -23.4122
lfemur -22.5767 -8.44977 -24.5074
ltibia 9.01831
lfoot -7.60113 -2.4552
ltoes -31.5663
